<?xml version="1.0" encoding="utf-8"?>
<!-- Generator: Adobe Illustrator 17.0.0, SVG Export Plug-In . SVG Version: 6.00 Build 0)  -->
<!DOCTYPE svg PUBLIC "-//W3C//DTD SVG 1.1//EN" "http://www.w3.org/Graphics/SVG/1.1/DTD/svg11.dtd">
<svg version="1.1" id="Capa_1" xmlns="http://www.w3.org/2000/svg" xmlns:xlink="http://www.w3.org/1999/xlink" x="0px" y="0px"
	 width="150px" height="115px" viewBox="0 0 150 115" enable-background="new 0 0 150 115" xml:space="preserve">
<g>
	<path fill="#2D2E83" stroke="#2D2E83" stroke-width="0.5" stroke-miterlimit="10" d="M0.639,97.329
		c-0.778-0.109-0.846-0.464-0.203-1.065c0.292-0.1,0.737-0.224,1.333-0.372c0.596-0.148,1.576-0.49,2.939-1.028
		c1.364-0.538,2.96-1.309,4.79-2.312c1.829-1.003,3.745-2.231,5.748-3.683c2.003-1.452,3.953-3.081,5.85-4.888
		c1.897-1.806,3.724-3.72,5.48-5.739c1.757-2.019,3.399-4.1,4.927-6.243c1.528-2.142,2.941-4.33,4.24-6.56
		c1.299-2.23,2.467-4.566,3.503-7.006c1.037-2.44,1.977-5.021,2.822-7.742c0.845-2.722,1.645-5.566,2.402-8.535
		c0.757-2.968,1.452-5.989,2.085-9.064c0.633-3.074,1.169-6.087,1.607-9.039c0.438-2.952,0.717-5.658,0.836-8.119
		c0.118-2.461,0.121-4.535,0.006-6.223c-0.115-1.688-0.297-2.979-0.545-3.873c-0.249-0.894-0.486-1.528-0.71-1.904
		c-0.224-0.376-0.392-0.619-0.506-0.731c-0.113-0.111-0.128-0.16-0.044-0.145c0.084,0.015,0.032,0.143-0.158,0.386
		c-0.189,0.243-0.445,0.73-0.769,1.464c-0.324,0.734-0.694,1.92-1.11,3.559c-0.416,1.639-0.841,3.787-1.274,6.445
		c-0.433,2.657-0.872,5.718-1.315,9.181c-0.444,3.464-0.86,6.988-1.246,10.574c-0.387,3.585-0.747,7.021-1.08,10.307
		c-0.332,3.286-0.612,6.43-0.839,9.434c-0.227,3.004-0.402,6.026-0.525,9.066c-0.123,3.04-0.203,6.168-0.239,9.385
		c-0.037,3.216-0.072,6.406-0.107,9.57c-0.035,3.163-0.077,6.116-0.128,8.856c-0.05,2.74-0.116,5.155-0.198,7.244
		c-0.082,2.089-0.154,3.896-0.215,5.42c-0.061,1.525-0.12,2.811-0.176,3.859c-0.056,1.048-0.088,1.881-0.097,2.501
		c-0.009,0.618-0.032,1.038-0.07,1.258c-0.038,0.22-0.157,0.224-0.357,0.014c-0.2-0.211-0.238-0.75-0.115-1.617
		c0.124-0.868,0.268-2.138,0.433-3.811c0.165-1.673,0.354-3.398,0.567-5.174c0.213-1.776,0.469-3.577,0.768-5.404
		c0.3-1.827,0.548-3.775,0.744-5.845c0.196-2.069,0.315-4.533,0.358-7.392c0.042-2.86,0.002-5.721-0.121-8.585
		c-0.123-2.864-0.249-5.344-0.379-7.438c-0.13-2.095-0.225-3.668-0.284-4.719c-0.059-1.051-0.105-1.761-0.137-2.131
		c-0.032-0.37,0.079-0.529,0.332-0.477c0.253,0.052,0.349,0.347,0.287,0.886c-0.063,0.538-0.098,1.382-0.108,2.532
		c-0.009,1.15,0.032,2.51,0.126,4.079c0.093,1.571,0.235,3.155,0.427,4.752c0.193,1.597,0.415,3.034,0.667,4.308
		c0.253,1.274,0.509,2.343,0.77,3.206c0.26,0.864,0.489,1.554,0.688,2.072c0.199,0.517,0.363,0.838,0.495,0.962
		c0.131,0.125,0.207,0.159,0.227,0.103c0.02-0.055,0.176-0.188,0.468-0.398c0.292-0.209,0.658-0.561,1.097-1.055
		c0.439-0.495,0.931-1.226,1.476-2.197c0.545-0.969,1.094-2.099,1.645-3.389c0.551-1.29,1.065-2.644,1.541-4.063
		c0.475-1.419,0.859-2.728,1.15-3.925c0.291-1.197,0.501-2.263,0.629-3.198c0.128-0.935,0.201-1.739,0.218-2.413
		c0.017-0.674,0.012-1.235-0.013-1.685c-0.026-0.45-0.063-0.798-0.113-1.044c-0.05-0.246-0.077-0.409-0.081-0.485
		c-0.004-0.077,0.049-0.101,0.159-0.071c0.11,0.031,0.102,0.18-0.023,0.448c-0.126,0.269-0.244,0.738-0.355,1.41
		c-0.111,0.671-0.155,1.428-0.133,2.269c0.022,0.841,0.111,1.689,0.265,2.543c0.155,0.854,0.365,1.652,0.629,2.394
		c0.265,0.741,0.565,1.402,0.901,1.98c0.336,0.579,0.676,1.053,1.022,1.421c0.345,0.369,0.688,0.612,1.029,0.728
		c0.341,0.116,0.694,0.13,1.06,0.04c0.367-0.089,0.773-0.305,1.219-0.647c0.446-0.343,0.91-0.817,1.39-1.424
		c0.48-0.606,0.951-1.305,1.41-2.097c0.46-0.792,0.895-1.709,1.305-2.75c0.41-1.041,0.754-2.062,1.03-3.062
		c0.276-1,0.489-1.924,0.637-2.77c0.148-0.846,0.249-1.589,0.303-2.228c0.054-0.64,0.09-1.209,0.11-1.708
		c0.02-0.499,0.033-0.962,0.041-1.389c0.008-0.427,0.022-0.729,0.042-0.906c0.02-0.177,0.113-0.227,0.278-0.152
		c0.165,0.076,0.17,0.29,0.014,0.644c-0.156,0.354-0.303,0.867-0.441,1.538c-0.138,0.672-0.229,1.42-0.275,2.244
		c-0.046,0.824-0.044,1.673,0.005,2.548c0.049,0.875,0.144,1.73,0.285,2.565c0.141,0.835,0.32,1.578,0.539,2.228
		c0.218,0.65,0.445,1.197,0.682,1.641c0.236,0.444,0.459,0.743,0.666,0.897c0.207,0.154,0.404,0.231,0.591,0.231
		c0.187,0,0.442-0.099,0.763-0.298c0.321-0.198,0.709-0.571,1.162-1.118c0.453-0.547,0.923-1.284,1.411-2.209
		c0.487-0.926,0.952-1.929,1.394-3.01c0.442-1.082,0.809-2.141,1.104-3.176c0.294-1.035,0.504-1.967,0.632-2.795
		c0.128-0.828,0.201-1.56,0.221-2.194c0.02-0.635,0.007-1.158-0.038-1.57c-0.045-0.412-0.05-0.704-0.015-0.876
		c0.035-0.172,0.094-0.186,0.179-0.041c0.084,0.144,0.066,0.47-0.055,0.978c-0.121,0.508-0.186,1.185-0.197,2.033
		c-0.011,0.847,0.077,1.706,0.265,2.575c0.188,0.869,0.455,1.712,0.803,2.529c0.348,0.817,0.756,1.57,1.225,2.259
		c0.469,0.688,1.004,1.279,1.607,1.772c0.602,0.493,1.26,0.867,1.975,1.121c0.715,0.254,1.48,0.349,2.299,0.287
		c0.818-0.062,1.65-0.312,2.495-0.749c0.845-0.438,1.698-1.102,2.558-1.992c0.86-0.891,1.705-2.024,2.536-3.398
		c0.83-1.374,1.642-2.91,2.436-4.608c0.794-1.698,1.526-3.485,2.194-5.362c0.668-1.877,1.238-3.719,1.711-5.528
		c0.472-1.809,0.83-3.573,1.073-5.294c0.243-1.72,0.38-3.344,0.412-4.871c0.031-1.527-0.025-2.975-0.168-4.342
		c-0.144-1.367-0.359-2.603-0.647-3.706c-0.286-1.104-0.585-2.022-0.897-2.756c-0.311-0.733-0.605-1.304-0.883-1.712
		c-0.278-0.408-0.522-0.695-0.733-0.863c-0.212-0.167-0.414-0.305-0.607-0.412c-0.192-0.107-0.369-0.181-0.533-0.22
		c-0.163-0.039-0.318-0.065-0.466-0.077c-0.148-0.012-0.267-0.023-0.357-0.033c-0.091-0.01-0.179,0-0.265,0.031
		c-0.085,0.03-0.142,0.059-0.168,0.087c-0.027,0.027-0.081,0.147-0.162,0.36c-0.08,0.213-0.123,0.58-0.129,1.102
		c-0.006,0.522,0.121,1.32,0.379,2.395C90.215,22,90.73,23.423,91.5,25.195c0.771,1.771,1.838,3.74,3.201,5.906
		c1.363,2.166,2.974,4.303,4.833,6.412c1.86,2.109,3.825,3.996,5.898,5.663c2.072,1.666,4.084,3.139,6.036,4.417
		c1.951,1.278,3.728,2.415,5.33,3.409c1.602,0.994,3.004,1.872,4.205,2.634c1.201,0.762,2.211,1.433,3.032,2.014
		c0.82,0.581,1.466,1.083,1.937,1.507c0.471,0.423,0.755,0.83,0.852,1.22c0.097,0.39,0.004,0.791-0.281,1.203
		c-0.285,0.412-0.771,0.874-1.457,1.386c-0.686,0.513-1.787,1.196-3.301,2.051c-1.514,0.854-3.619,1.886-6.315,3.095
		c-2.696,1.209-5.97,2.551-9.822,4.025c-3.852,1.474-8.028,2.941-12.527,4.399c-4.501,1.459-9.071,2.917-13.71,4.376
		c-4.64,1.458-9.297,3.004-13.971,4.638c-4.674,1.634-9.34,3.427-13.997,5.377c-4.657,1.951-9.138,3.902-13.444,5.853
		c-4.306,1.951-8.057,3.674-11.254,5.169c-3.197,1.495-5.645,2.632-7.345,3.41c-1.7,0.779-2.809,1.294-3.326,1.545
		c-0.518,0.252-0.729,0.205-0.633-0.141c0.096-0.346,0.647-0.655,1.653-0.926c1.006-0.271,2.541-0.827,4.607-1.668
		s4.63-1.924,7.69-3.248c3.061-1.324,6.393-2.827,9.997-4.511c3.604-1.683,7.295-3.394,11.074-5.133
		c3.779-1.739,7.593-3.479,11.442-5.218c3.849-1.74,7.689-3.436,11.521-5.088c3.831-1.653,7.601-3.261,11.309-4.826
		c3.708-1.565,7.311-3.033,10.808-4.406c3.497-1.373,6.881-2.657,10.149-3.854c3.27-1.196,6.442-2.306,9.517-3.327
		c3.076-1.021,6.036-1.981,8.884-2.88c2.847-0.899,5.526-1.728,8.039-2.487c2.513-0.76,4.77-1.442,6.772-2.047
		c2.002-0.606,3.714-1.118,5.136-1.538c1.421-0.42,2.551-0.752,3.389-0.997c0.838-0.245,1.478-0.463,1.919-0.653
		c0.816-0.02,0.862,0.208,0.136,0.685c-0.472,0.09-1.133,0.224-1.982,0.401c-0.85,0.177-1.987,0.46-3.412,0.848
		c-1.426,0.389-3.141,0.878-5.146,1.467c-2.005,0.59-4.264,1.261-6.778,2.012c-2.514,0.752-5.194,1.576-8.042,2.47
		c-2.848,0.894-5.809,1.849-8.884,2.867c-3.076,1.018-6.248,2.123-9.517,3.316c-3.269,1.193-6.652,2.475-10.149,3.844
		c-3.498,1.37-7.101,2.836-10.81,4.399c-3.707,1.564-7.478,3.171-11.308,4.824c-3.831,1.651-7.671,3.348-11.52,5.087
		c-3.849,1.741-7.662,3.481-11.44,5.221c-3.779,1.742-7.469,3.457-11.071,5.148c-3.602,1.691-6.93,3.211-9.986,4.558
		c-3.056,1.347-5.606,2.479-7.653,3.395c-2.047,0.916-3.534,1.643-4.461,2.181c-0.927,0.537-1.519,0.739-1.774,0.603
		c-0.255-0.135-0.115-0.305,0.422-0.51c0.537-0.205,1.66-0.692,3.369-1.46c1.71-0.768,4.166-1.898,7.366-3.391
		c3.2-1.493,6.953-3.214,11.26-5.165c4.306-1.95,8.788-3.902,13.446-5.853c4.658-1.951,9.324-3.744,14-5.379
		c4.675-1.635,9.333-3.181,13.973-4.64c4.639-1.459,9.209-2.918,13.707-4.378c4.499-1.459,8.67-2.928,12.517-4.406
		c3.846-1.478,7.11-2.825,9.792-4.042c2.682-1.216,4.76-2.258,6.233-3.126c1.474-0.868,2.519-1.555,3.132-2.062
		c0.614-0.507,1.025-0.923,1.233-1.249c0.207-0.327,0.306-0.629,0.298-0.907c-0.008-0.278-0.216-0.645-0.624-1.1
		c-0.408-0.455-1.01-0.99-1.806-1.604c-0.797-0.614-1.79-1.314-2.979-2.099c-1.19-0.785-2.582-1.682-4.179-2.691
		c-1.596-1.009-3.37-2.158-5.319-3.445c-1.95-1.287-3.963-2.768-6.038-4.441c-2.075-1.673-4.046-3.564-5.913-5.673
		c-1.867-2.109-3.489-4.243-4.869-6.401c-1.379-2.157-2.472-4.108-3.284-5.852c-0.811-1.743-1.386-3.132-1.726-4.166
		c-0.339-1.034-0.547-1.818-0.623-2.351c-0.075-0.532-0.084-0.956-0.024-1.27c0.06-0.314,0.182-0.546,0.366-0.694
		c0.183-0.149,0.356-0.243,0.516-0.282c0.16-0.04,0.319-0.065,0.473-0.075c0.155-0.01,0.318-0.003,0.486,0.02
		c0.169,0.023,0.365,0.068,0.589,0.134c0.223,0.066,0.45,0.168,0.68,0.307c0.23,0.138,0.449,0.318,0.659,0.537
		c0.21,0.22,0.44,0.547,0.69,0.983c0.25,0.436,0.518,1.025,0.804,1.768c0.286,0.743,0.567,1.67,0.842,2.781
		c0.275,1.111,0.482,2.353,0.62,3.728c0.138,1.375,0.187,2.827,0.148,4.357c-0.04,1.531-0.184,3.159-0.432,4.883
		c-0.249,1.725-0.612,3.493-1.088,5.304c-0.477,1.811-1.049,3.66-1.716,5.543c-0.667,1.884-1.395,3.683-2.183,5.394
		c-0.788,1.711-1.593,3.269-2.414,4.672c-0.822,1.403-1.664,2.573-2.527,3.51c-0.863,0.937-1.733,1.643-2.609,2.12
		c-0.877,0.477-1.751,0.754-2.62,0.832c-0.869,0.078-1.684-0.019-2.445-0.292c-0.762-0.274-1.457-0.673-2.084-1.2
		c-0.629-0.526-1.182-1.147-1.662-1.865c-0.48-0.717-0.898-1.494-1.253-2.329c-0.355-0.835-0.633-1.697-0.831-2.585
		c-0.199-0.888-0.321-1.752-0.368-2.592c-0.046-0.84-0.059-1.515-0.039-2.027c0.02-0.511,0.16-0.871,0.42-1.078
		c0.26-0.207,0.443-0.186,0.548,0.064c0.105,0.25,0.153,0.574,0.143,0.97c-0.01,0.397-0.04,0.91-0.09,1.541
		c-0.051,0.631-0.153,1.358-0.307,2.182c-0.153,0.824-0.382,1.755-0.686,2.795c-0.304,1.039-0.674,2.107-1.111,3.204
		c-0.437,1.097-0.886,2.132-1.348,3.105c-0.462,0.973-0.906,1.783-1.331,2.432c-0.426,0.648-0.829,1.136-1.211,1.465
		c-0.381,0.329-0.76,0.476-1.135,0.441c-0.376-0.035-0.688-0.204-0.938-0.507c-0.25-0.302-0.484-0.707-0.705-1.211
		c-0.22-0.504-0.432-1.1-0.636-1.786c-0.204-0.686-0.375-1.455-0.516-2.306c-0.14-0.852-0.239-1.72-0.295-2.602
		c-0.056-0.883-0.072-1.738-0.048-2.566c0.025-0.828,0.073-1.574,0.146-2.238c0.073-0.664,0.137-1.188,0.192-1.573
		c0.055-0.385,0.235-0.592,0.541-0.622c0.306-0.03,0.469,0.06,0.489,0.27c0.02,0.21,0.017,0.523-0.011,0.939
		c-0.027,0.417-0.066,0.868-0.117,1.353c-0.05,0.486-0.12,1.041-0.206,1.667c-0.087,0.626-0.214,1.359-0.383,2.2
		c-0.168,0.842-0.395,1.764-0.681,2.767c-0.286,1.003-0.628,2.038-1.026,3.107c-0.398,1.068-0.824,2.014-1.278,2.839
		c-0.454,0.825-0.916,1.566-1.384,2.226c-0.469,0.66-0.937,1.205-1.405,1.635c-0.468,0.431-0.94,0.707-1.418,0.829
		c-0.477,0.122-0.932,0.082-1.365-0.118c-0.433-0.2-0.828-0.52-1.185-0.96c-0.358-0.439-0.703-0.968-1.035-1.584
		c-0.332-0.617-0.63-1.31-0.892-2.079c-0.263-0.77-0.475-1.588-0.637-2.457c-0.161-0.868-0.266-1.725-0.314-2.571
		c-0.048-0.845-0.057-1.6-0.027-2.264c0.03-0.664,0.087-1.179,0.172-1.542c0.085-0.365,0.288-0.567,0.609-0.607
		c0.321-0.04,0.532,0.042,0.633,0.246c0.102,0.204,0.145,0.429,0.13,0.674c-0.015,0.246-0.035,0.584-0.061,1.012
		c-0.025,0.429-0.065,0.975-0.118,1.636c-0.054,0.662-0.157,1.458-0.31,2.386c-0.153,0.928-0.383,1.989-0.689,3.181
		c-0.307,1.193-0.697,2.503-1.17,3.932c-0.473,1.428-0.979,2.797-1.517,4.109c-0.538,1.312-1.062,2.484-1.571,3.518
		c-0.509,1.034-0.966,1.849-1.37,2.444c-0.405,0.595-0.742,1.069-1.012,1.422c-0.27,0.352-0.571,0.536-0.902,0.551
		c-0.331,0.014-0.572-0.144-0.722-0.478c-0.15-0.332-0.301-0.785-0.454-1.357c-0.153-0.572-0.346-1.305-0.578-2.199
		c-0.232-0.895-0.467-1.988-0.707-3.279c-0.239-1.291-0.456-2.738-0.651-4.338c-0.195-1.601-0.351-3.18-0.469-4.739
		c-0.118-1.559-0.217-2.888-0.297-3.988c-0.08-1.1-0.168-1.872-0.266-2.319c-0.098-0.446-0.019-0.73,0.234-0.854
		c0.253-0.124,0.364-0.037,0.332,0.261c-0.032,0.298-0.043,0.959-0.032,1.982c0.011,1.023,0.074,2.578,0.191,4.666
		c0.116,2.088,0.235,4.564,0.359,7.43c0.123,2.866,0.17,5.733,0.142,8.603c-0.028,2.87-0.138,5.345-0.328,7.423
		c-0.19,2.079-0.434,4.032-0.732,5.861c-0.297,1.828-0.551,3.63-0.76,5.404c-0.209,1.775-0.372,3.512-0.488,5.213
		c-0.116,1.701-0.148,3.032-0.095,3.993c0.053,0.961-0.02,1.529-0.221,1.704c-0.2,0.175-0.301,0.127-0.304-0.144
		c-0.003-0.272,0.026-0.731,0.088-1.378c0.062-0.647,0.135-1.5,0.219-2.561c0.085-1.061,0.166-2.358,0.246-3.891
		c0.079-1.534,0.166-3.347,0.26-5.441s0.169-4.513,0.224-7.256c0.056-2.742,0.101-5.696,0.136-8.859
		c0.035-3.164,0.07-6.353,0.104-9.569c0.034-3.216,0.113-6.344,0.235-9.386c0.123-3.041,0.3-6.065,0.53-9.072
		c0.23-3.007,0.512-6.154,0.848-9.441c0.335-3.288,0.696-6.724,1.082-10.309c0.386-3.585,0.797-7.108,1.231-10.569
		c0.435-3.461,0.858-6.516,1.268-9.167c0.41-2.651,0.794-4.791,1.151-6.42c0.357-1.63,0.655-2.816,0.894-3.559
		c0.239-0.743,0.439-1.274,0.602-1.595c0.162-0.32,0.391-0.49,0.686-0.51c0.295-0.02,0.509,0.054,0.642,0.224
		c0.133,0.17,0.28,0.454,0.443,0.851c0.162,0.397,0.348,1.046,0.556,1.945c0.208,0.899,0.36,2.192,0.456,3.878
		c0.096,1.686,0.081,3.76-0.046,6.22s-0.411,5.168-0.851,8.121c-0.44,2.953-0.977,5.968-1.609,9.045
		c-0.633,3.076-1.326,6.101-2.081,9.073c-0.754,2.972-1.553,5.821-2.396,8.548c-0.843,2.726-1.783,5.313-2.82,7.759
		c-1.038,2.446-2.207,4.785-3.509,7.019c-1.302,2.234-2.719,4.423-4.249,6.568c-1.53,2.145-3.175,4.23-4.933,6.253
		c-1.758,2.023-3.587,3.941-5.486,5.755c-1.899,1.813-3.851,3.453-5.855,4.918c-2.004,1.466-3.92,2.717-5.746,3.752
		c-1.827,1.035-3.411,1.881-4.754,2.539c-1.343,0.658-2.305,1.123-2.886,1.397C1.361,97.026,0.927,97.219,0.639,97.329z"/>
</g>
</svg>
