<svg width="730" height="950" viewBox="0 0 730 950" fill="none" xmlns="http://www.w3.org/2000/svg">
<path d="M31 169V169.5V196.5V234V268V298H700V268V234V196.5V170V169H31ZM32 235H359.078V267H336.56H335.56H319.12H318.12H301.68H300.68H284.241H283.241H266.802H265.802H249.363H248.363H231.924H230.924H214.485H213.485H197.046H196.046H179.607H178.607H162.168H161.168H144.728H143.728H127.289H126.289H109.85H108.85H92.406H91.406H74.967H73.967H57.527H56.527H32V235ZM699 297H32V268H699V297ZM699 267H360.078V235H699V267ZM699 234H32V196.5H699V234Z" fill="black"/>
<path d="M31 405H700V307H31V405ZM32 334.5H699V373.032H32V334.5ZM32 374.032H699V404H322.167H301.609H300.609H284.089H283.089H266.568H265.568H249.048H248.048H231.528H230.528H214.008H213.008H196.487H195.487H178.967H177.967H161.447H160.447H143.927H142.927H126.406H125.406H108.886H107.886H91.366H90.366H73.847H72.847H56.327H55.327H48.167H32V374.032Z" fill="black"/>
<path d="M31 412V478.374C31.337 478.487 31.67 478.586 32 478.682V439.5H699V453.715C699.358 453.899 699.688 454.138 700 454.417V412H31Z" fill="black"/>
<path d="M699 485.747H32V478.682C31.67 478.586 31.337 478.487 31 478.374V574.333H700V454.417C699.688 454.137 699.358 453.898 699 453.715V485.747ZM596.804 486.747H646.666V517.747H621.997V500.007H620.997V517.747H596.804V486.747ZM504.11 486.747H595.804V517.747H573.512V500.007H572.512V517.747H550.695V500.007H549.695V517.747H527.403V500.007H526.403V517.747H504.11V486.747ZM478.44 486.747H503.109V517.747H478.44V486.747ZM428.054 486.747H477.441V517.747H453.248V500.007H452.247V517.747H428.054V486.747V486.747ZM377.19 486.747H427.053V517.747H403.685V500.007H402.686V517.747H377.19V486.747ZM301.61 486.747H376.191V517.747H357.702V500.007H356.701V517.747H339.638V500.007H338.638V517.747H321.099V500.007H320.099V517.747H301.61V486.747ZM218.422 486.747H300.609V517.747H218.422V486.747V486.747ZM32 486.747H217.423V517.747H32V486.747ZM699 573.334H32V547.334H699V573.334ZM699 546.334H32V518.747H699V546.334ZM699 517.747H671.909V500.007H670.909V517.747H647.666V486.747H699V517.747Z" fill="black"/>
<path d="M31 758.334H700V584.334H31V758.334ZM32 585.334H699V757.334H32V585.334Z" fill="black"/>
<path d="M240.029 735.516H73.099V736.516H240.029V735.516Z" fill="black"/>
<path d="M445.044 735.516H257.856V736.516H445.044V735.516Z" fill="black"/>
<path d="M644.794 735.516H461.252V736.516H644.794V735.516Z" fill="black"/>
</svg>
